HIERARCHY
ROOT Hips
{
  OFFSET 44.7658 97.2941 -117.496
  CHANNELS 6 Xposition Yposition Zposition Zrotation Xrotation Yrotation
  JOINT RightUpLeg
  {
    OFFSET -8.9458 -8.66707 0.101652
    CHANNELS 3 Zrotation Xrotation Yrotation
    JOINT RightLeg
    {
      OFFSET 0 -44.4227 1.3727
      CHANNELS 3 Zrotation Xrotation Yrotation
      JOINT RightFoot
      {
        OFFSET 0.253549 -42.0924 -1.46059
        CHANNELS 3 Zrotation Xrotation Yrotation
        JOINT RightToes
        {
          OFFSET 0.04 -4.41509 8.4991
          CHANNELS 3 Zrotation Xrotation Yrotation
          End Site
          {
            OFFSET -0.08 -0.137448 9.77979
          }
        }
      }
    }
  }
  JOINT Spine
  {
    OFFSET 0 11.8905 0
    CHANNELS 3 Zrotation Xrotation Yrotation
    JOINT Spine1
    {
      OFFSET 0 25.6574 0.127663
      CHANNELS 3 Zrotation Xrotation Yrotation
      JOINT HEad
      {
        OFFSET 0 8.73416 0.011341
        CHANNELS 3 Zrotation Xrotation Yrotation
        End Site
        {
          OFFSET -0.29 12.7742 2.51395
        }
      }
      JOINT LeftShoulder1
      {
        OFFSET 8.99 -0.362252 -0.22
        CHANNELS 3 Zrotation Xrotation Yrotation
        JOINT LeftArm
        {
          OFFSET 10.2827 -0.00338 0.322123
          CHANNELS 3 Zrotation Xrotation Yrotation
          JOINT LeftForeArm
          {
            OFFSET 32.7669 0.099144 -1.42434
            CHANNELS 3 Zrotation Xrotation Yrotation
            JOINT LeftHand
            {
              OFFSET 27.5643 0.085362 1.02216
              CHANNELS 3 Zrotation Xrotation Yrotation
              End Site
              {
                OFFSET 16.7443 -0.6 1.50291
              }
            }
          }
        }
      }
      JOINT RightShoulder
      {
        OFFSET -8.99 -0.362252 -0.22
        CHANNELS 3 Zrotation Xrotation Yrotation
        JOINT RightArm
        {
          OFFSET -10.2827 -0.00338 0.322123
          CHANNELS 3 Zrotation Xrotation Yrotation
          JOINT RightForeArm
          {
            OFFSET -32.8971 0.099144 -1.42434
            CHANNELS 3 Zrotation Xrotation Yrotation
            JOINT RightHand
            {
              OFFSET -27.4921 0.085362 1.02216
              CHANNELS 3 Zrotation Xrotation Yrotation
              End Site
              {
                OFFSET -16.6312 -0.6 1.50291
              }
            }
          }
        }
      }
    }
  }
  JOINT LeftUpLeg
  {
    OFFSET 8.9458 -8.66707 0.101652
    CHANNELS 3 Zrotation Xrotation Yrotation
    JOINT LeftLeg
    {
      OFFSET 0 -44.4227 1.3727
      CHANNELS 3 Zrotation Xrotation Yrotation
      JOINT LeftFoot
      {
        OFFSET -0.253549 -42.0924 -1.46059
        CHANNELS 3 Zrotation Xrotation Yrotation
        JOINT LeftToes
        {
          OFFSET -0.04 -4.41509 8.4991
          CHANNELS 3 Zrotation Xrotation Yrotation
          End Site
          {
            OFFSET 0.08 -0.047448 9.77979
          }
        }
      }
    }
  }
}
MOTION
Frames:	12
Frame Time:	0.0166667
44.7658 97.2941 -117.496 -4.05975 -3.50829 -16.7869 -16.391 2.29085 -8.24222 7.67378 30.3884 4.62206 5.26888 -1.00171 -0.0884112 0.0462048 0.000533403 0.662642 10.0655 2.56078 -11.9569 -0.0448285 0.0689701 0.0584811 -13.1764 23.1437 19.7841 1.78906e-015 3.97569e-016 -3.18055e-015 146.34 -60.3738 175.751 -93.992 54.6624 -33.2775 6.74772 17.5363 -3.90521 -4.25406 30.6853 32.1769 104.189 -31.4564 83.9651 100.926 60.6085 50.0358 -3.88374 9.33373 7.45966 13.6556 -23.3361 -3.39826 -1.19742 27.4245 5.6703 6.25076 -3.54241 0.422073 -2.30919e-008 1.56037e-007 -4.88727e-009 
44.1502 95.472 -117.953 -3.43368 -3.29432 -13.2026 -15.5185 -0.644731 -8.89673 6.00624 37.6316 1.00943 7.48419 -0.20523 -0.0389186 0.0462048 0.000533403 0.662642 7.60926 6.03211 -10.7556 -0.0428088 0.0608701 0.047631 -12.2547 17.4307 17.9263 -9.93923e-017 5.96354e-016 3.18055e-015 154.742 -59.5021 -175.33 -93.2007 54.9097 -33.9925 6.21484 17.2182 -4.78715 -1.0649 27.7307 28.9039 97.0245 -28.184 74.8241 108.468 63.9705 49.5569 -3.95253 21.2867 -1.2908 12.5568 -27.4778 -2.97301 -0.111235 30.852 1.70411 7.28012 -3.55311 0.499906 -2.30919e-008 1.56037e-007 -4.88727e-009 
43.242 93.1239 -118.679 -2.1703 -3.37495 -7.96223 -15.456 -4.10951 -10.342 4.91154 46.7726 -3.76926 10.2404 0.67708 0.0248845 0.0462048 0.000533403 0.662642 4.38499 10.2537 -10.325 -0.0381394 0.0512501 0.030901 -12.0138 11.1281 15.9998 3.97569e-016 2.38542e-015 -3.18055e-015 164.994 -57.7143 -164.747 -93.3003 55.3934 -34.2573 16.2355 15.338 9.9338 -7.92243 31.1485 32.4205 103.59 -26.4858 81.8416 113.579 66.4699 47.949 -10.3259 7.88791 1.13639 9.66525 -32.2103 -3.63352 1.9501 34.8833 -3.5861 8.17476 -3.49762 0.57343 -2.30919e-008 1.56037e-007 -4.88727e-009 
42.1417 90.6342 -119.63 -1.03001 -3.43876 -3.30211 -15.4894 -8.3626 -10.4843 6.21476 55.812 -10.5633 12.8654 1.42638 -0.00445761 0.0462048 0.000533403 0.662642 1.03536 15.2627 -8.50074 -0.0332495 0.04279 0.0172908 -12.7239 4.65129 13.7468 2.64834e-031 -3.18055e-015 4.77083e-015 175.192 -54.8852 -154.082 -90.4609 52.2482 -34.9019 4.35524 18.5057 -5.46387 -14.0186 34.2341 35.4513 111.461 -24.6534 90.5575 117.464 68.3379 45.5151 -5.87594 22.8768 -2.16576 6.7874 -36.9488 -3.07018 5.35996 39.0254 -10.4679 8.98823 -3.29821 0.637632 -2.30919e-008 1.56037e-007 -4.88728e-009 
40.7338 87.833 -120.759 -0.0094155 -3.41761 0.899001 -15.5922 -13.0611 -9.43688 11.8622 64.5433 -21.2634 15.4939 2.11041 -0.0397867 0.0462048 0.000533403 0.662642 -2.54164 20.789 -5.37243 -0.0303296 0.0401886 0.0107794 -14.6119 -1.67251 10.8548 1.98785e-016 3.18055e-015 1.59028e-015 -174.803 -50.6839 -143.675 -89.6158 51.2056 -34.7098 19.5966 16.7021 14.7746 -6.24533 31.4893 28.2474 109.202 -24.2028 88.3461 120.558 69.5908 42.9086 -17.7361 0.074839 -5.11763 4.06132 -41.7734 -1.34226 10.4198 42.8918 -19.199 9.74694 -3.00198 0.695132 -2.30919e-008 1.56037e-007 -4.88727e-009 
40.2908 85.0364 -122.41 -0.38681 -6.31481 4.90505 -14.817 -14.066 -7.32502 23.0201 71.0057 -36.0544 18.6563 3.43364 -0.317367 0.0462048 0.000533403 0.662642 -6.56274 26.5333 -0.927332 -0.0254825 0.0396448 0.00184888 -17.8618 -7.12871 7.13008 -2.78299e-015 -3.18055e-015 -0 -166.097 -45.4793 -134.592 -90.3208 51.5505 -34.1586 15.2255 14.21 -0.362023 1.24934 27.9444 21.3811 105.858 -21.7844 85.6871 124.835 64.4386 36.3774 -9.76644 17.2463 1.03838 3.01723 -44.5155 3.33359 17.4509 47.0484 -31.3543 12.2148 -2.85212 0.354049 -2.30919e-008 1.56037e-007 -4.88727e-009 
39.5363 82.1094 -124.056 0.0577059 -8.1008 10.2108 -15.5593 -15.0814 -7.2689 42.2751 75.3001 -57.7526 21.5404 4.66727 -0.511886 0.0462048 0.000533403 0.662642 -10.5655 31.4822 2.65098 -0.0211497 0.040655 -0.00624075 -22.2634 -10.8944 2.65687 3.18055e-015 3.18055e-015 -0 -158.379 -39.2148 -126.792 -86.5388 50.0307 -32.8612 13.9609 17.4166 5.33184 0.177029 32.2909 23.1982 111.078 -20.4301 95.5459 126.485 61.551 33.1334 -13.2176 13.1235 1.22183 0.181004 -48.297 6.89469 26.4877 49.832 -45.4211 14.78 -2.48399 0.118433 -2.30919e-008 1.56037e-007 -4.88728e-009 
38.6222 79.3709 -125.604 0.730309 -10.006 14.7672 -16.5376 -15.3384 -6.9536 67.0212 76.5174 -83.9322 23.993 5.82266 -0.598014 0.0462048 0.000533403 0.662642 -14.9583 36.5866 7.25244 -0.0202896 0.0427152 -0.00701042 -26.3903 -13.4726 -2.76891 1.59028e-015 -6.36111e-015 -3.18055e-015 -152.199 -32.6832 -120.937 -84.9407 50.0074 -32.2007 9.68138 16.0431 -5.27019 7.72521 27.3283 16.6021 107.974 -18.3936 92.9903 126.847 60.0143 31.5501 -9.55255 22.2816 3.65281 -2.56285 -51.1087 10.3363 35.6654 50.9002 -58.7174 17.3142 -2.05976 0.0197945 -2.30919e-008 1.56037e-007 -4.88727e-009 
37.6215 76.7173 -126.919 1.59221 -11.9528 18.6523 -17.6101 -14.8998 -6.44238 87.5855 75.1462 -105.075 25.9893 6.89836 -0.5637 0.0462048 0.000533403 0.662642 -19.9521 41.6737 12.9178 -0.0148713 0.0453215 -0.01026 -30.0719 -15.0194 -8.79389 1.76556e-031 3.18055e-015 -3.18055e-015 -147.483 -29.5004 -115.086 -85.645 52.2371 -34.3333 9.05768 27.415 17.5952 13.8559 21.9072 11.6197 105.408 -16.2118 91.2993 126.199 59.0049 31.1366 -11.9045 18.8181 3.13814 -5.07451 -53.0672 13.5886 43.9284 50.6478 -70.3266 19.7253 -1.65548 0.0773613 -2.30919e-008 1.56037e-007 -4.88727e-009 
36.6257 74.3649 -127.973 2.58247 -13.9173 21.9096 -18.6177 -13.8237 -5.73962 100.09 72.6176 -117.522 27.5061 7.88276 -0.413329 0.0462048 0.000533403 0.662642 -25.8152 46.5945 19.7282 -0.0090104 0.04797 -0.0188898 -33.1184 -15.8275 -15.117 1.11319e-014 -9.54166e-015 -3.18055e-015 -142.901 -24.6732 -111.367 -85.8106 53.7819 -35.9909 4.25496 19.1418 9.44266 18.9779 15.9035 7.57468 103.121 -13.7347 89.8805 125.533 58.1153 31.032 -9.74884 23.3977 4.00431 -7.19549 -54.2101 16.6721 50.8445 49.5383 -79.9094 21.9474 -1.32375 0.304386 -2.30919e-008 1.56037e-007 -4.88728e-009 
35.7307 72.2782 -128.726 3.64183 -15.888 24.5828 -19.4646 -12.1962 -4.84716 106.867 69.9829 -123.787 28.6305 8.77565 -0.162266 0.0462048 0.000533403 0.662642 -32.2886 50.9216 27.3048 -0.0055107 0.05211 -0.0314399 -34.0449 -15.5648 -21.162 4.77083e-015 1.27222e-014 -6.36111e-015 -138.935 -19.1005 -109.437 -85.4007 54.6186 -37.249 7.59877 24.8086 11.9745 22.7824 9.94642 4.46137 101.276 -11.1816 88.893 124.318 57.253 31.682 -11.0791 22.1355 3.21983 -8.80747 -54.6121 19.5977 56.3646 47.9978 -87.4929 23.9713 -1.09723 0.70682 -2.30919e-008 1.56037e-007 -4.88727e-009 
35.0296 70.5479 -129.204 4.69684 -17.8727 26.6986 -20.089 -10.1045 -3.7923 110.247 67.7176 -126.326 29.4451 9.58539 0.160124 0.0462048 0.000533403 0.662642 -37.8438 53.8308 33.9024 0.0250685 -0.0430601 -0.0594306 -33.0714 -14.5093 -25.8694 -3.18055e-015 -6.36111e-015 3.18055e-015 -135.867 -14.4957 -108.246 -85.0483 55.12 -38.0847 4.39831 19.9511 7.01091 25.6078 5.30804 1.83646 99.3209 -8.59804 88.12 122.742 56.4181 32.8002 -9.31505 25.0022 3.24932 -9.85147 -54.3476 22.3519 60.6928 46.3397 -93.3296 25.8222 -0.987031 1.28064 -2.30919e-008 1.56037e-007 -4.88727e-009 
